<?xml version="1.0" standalone="no"?>
<!DOCTYPE svg PUBLIC "-//W3C//DTD SVG 20010904//EN"
 "http://www.w3.org/TR/2001/REC-SVG-20010904/DTD/svg10.dtd">
<svg version="1.0" xmlns="http://www.w3.org/2000/svg"
 width="199.000000pt" height="142.000000pt" viewBox="0 0 199.000000 142.000000"
 preserveAspectRatio="xMidYMid meet">

<g transform="translate(0.000000,142.000000) scale(0.100000,-0.100000)"
fill="#000000" stroke="none">
<path d="M947 1298 c-8 -13 -20 -51 -27 -85 l-13 -63 -98 0 -99 0 0 -420 0
-420 339 0 c335 0 338 0 372 23 58 39 59 42 59 395 0 275 -2 329 -16 357 -22
47 -52 64 -124 67 l-63 3 -17 70 c-9 39 -19 76 -24 83 -5 8 -46 12 -141 12
-129 0 -135 -1 -148 -22z m368 -281 c21 -16 15 -61 -11 -71 -39 -15 -73 41
-42 72 16 16 30 15 53 -1z m-127 -71 c47 -24 93 -76 120 -135 21 -45 24 -64
20 -125 -6 -85 -30 -137 -88 -190 -54 -49 -76 -56 -169 -56 -98 0 -165 30
-216 98 -107 140 -55 352 101 413 76 29 170 27 232 -5z"/>
<path d="M1043 913 c15 -2 37 -2 50 0 12 2 0 4 -28 4 -27 0 -38 -2 -22 -4z"/>
<path d="M977 903 c-3 -5 5 -8 18 -8 13 0 21 3 18 8 -2 4 -10 7 -18 7 -8 0
-16 -3 -18 -7z"/>
<path d="M1038 883 c-6 -7 -17 -13 -24 -13 -8 0 -14 -4 -14 -9 0 -5 -9 -7 -21
-4 -13 4 -17 8 -9 13 8 5 7 9 -5 13 -9 4 -14 3 -11 -1 2 -4 0 -14 -5 -22 -7
-12 -11 -12 -17 -2 -7 10 -11 10 -22 -3 -11 -13 -10 -14 6 -9 19 7 19 7 0 -14
-10 -12 -23 -19 -27 -16 -5 3 -6 -3 -2 -12 4 -12 3 -15 -5 -10 -8 5 -10 1 -5
-10 4 -10 2 -15 -3 -11 -6 4 -9 -7 -7 -26 3 -26 1 -28 -6 -12 -17 36 -13 -72
5 -113 19 -47 62 -92 80 -85 8 3 14 -1 14 -10 0 -10 7 -14 23 -10 18 4 19 3 7
-6 -12 -9 -9 -10 14 -5 18 4 27 3 23 -3 -3 -5 15 -10 45 -10 35 0 46 2 37 9
-10 7 -5 8 16 3 16 -4 27 -3 23 1 -4 4 0 13 10 20 24 19 40 17 16 -2 -19 -15
-19 -15 1 -5 22 10 63 51 64 64 1 4 1 12 1 18 0 5 4 8 9 5 5 -4 7 4 4 16 -4
19 -3 21 7 8 10 -13 11 -13 6 2 -3 10 -2 20 3 22 21 13 0 166 -23 166 -3 0 2
-16 10 -35 17 -41 18 -71 2 -81 -6 -4 -9 -3 -6 2 3 5 0 14 -7 21 -10 10 -14 7
-19 -13 -4 -14 -4 -30 -1 -37 4 -7 -4 0 -17 16 -26 30 -48 35 -48 12 0 -8 -4
-15 -10 -15 -5 0 -10 -8 -10 -19 0 -10 -7 -24 -15 -31 -8 -7 -19 -29 -25 -49
-6 -23 -19 -43 -35 -51 -22 -12 -27 -11 -45 5 -11 10 -20 26 -19 34 4 34 -20
71 -45 71 -20 0 -27 7 -35 33 -7 27 -5 35 11 49 12 11 18 25 14 33 -3 9 -2 13
4 10 6 -3 10 -1 10 4 0 6 7 11 15 11 8 0 12 6 9 14 -3 7 2 16 11 20 11 4 14 2
10 -7 -4 -6 2 -1 14 13 14 17 30 25 52 25 24 0 34 6 40 23 8 21 6 22 -27 20
-19 -1 -40 -8 -46 -15z m232 -207 c0 -8 -4 -18 -10 -21 -5 -3 -10 3 -10 14 0
12 5 21 10 21 6 0 10 -6 10 -14z m-391 -41 l0 -20 -9 20 c-5 11 -9 27 -9 35
-1 13 0 13 9 0 5 -8 9 -24 9 -35z m28 -50 c0 -20 -4 -19 -17 5 -8 15 -8 18 3
14 8 -3 14 -11 14 -19z m223 -14 c0 -6 -4 -13 -10 -16 -5 -3 -10 1 -10 9 0 9
5 16 10 16 6 0 10 -4 10 -9z m90 -7 c0 -8 -19 -13 -24 -6 -3 5 1 9 9 9 8 0 15
-2 15 -3z"/>
<path d="M1215 850 c10 -11 20 -20 23 -20 3 0 -3 9 -13 20 -10 11 -20 20 -23
20 -3 0 3 -9 13 -20z"/>
<path d="M985 770 c-3 -6 1 -10 9 -10 9 0 16 -4 16 -9 0 -12 46 -20 62 -10 9
6 7 9 -9 9 -12 0 -23 5 -25 12 -5 15 -45 21 -53 8z"/>
<path d="M1068 773 c7 -3 16 -2 19 1 4 3 -2 6 -13 5 -11 0 -14 -3 -6 -6z"/>
<path d="M461 1137 c-13 -6 -34 -25 -45 -40 -20 -28 -21 -39 -21 -360 0 -299
2 -335 18 -364 25 -46 64 -63 147 -63 l70 0 0 420 0 420 -72 0 c-40 0 -84 -6
-97 -13z"/>
<path d="M110 185 l0 -76 51 3 c57 3 78 22 64 54 -5 11 -9 35 -9 54 l-1 35
-52 3 -53 3 0 -76z m75 30 c0 -5 -10 -11 -22 -13 -16 -2 -23 2 -23 13 0 11 7
15 23 13 12 -2 22 -7 22 -13z m5 -60 c0 -9 -9 -15 -25 -15 -16 0 -25 6 -25 15
0 9 9 15 25 15 16 0 25 -6 25 -15z"/>
<path d="M240 245 c0 -8 9 -15 20 -15 11 0 20 7 20 15 0 8 -9 15 -20 15 -11 0
-20 -7 -20 -15z"/>
<path d="M297 233 c-2 -16 -2 -48 2 -73 5 -40 9 -45 34 -48 19 -2 27 1 27 12
0 9 -4 16 -10 16 -5 0 -10 11 -10 25 0 14 5 25 10 25 6 0 10 7 10 15 0 8 -4
15 -10 15 -5 0 -10 9 -10 20 0 32 -36 26 -43 -7z"/>
<path d="M506 244 c-29 -28 -19 -53 27 -73 32 -14 38 -20 25 -26 -9 -3 -26 -1
-37 5 -17 9 -22 8 -28 -6 -14 -38 76 -49 101 -12 13 19 14 25 2 42 -7 11 -24
23 -36 26 -13 3 -26 12 -28 19 -3 10 3 11 26 6 19 -4 33 -2 37 6 18 28 -62 40
-89 13z"/>
<path d="M620 245 c0 -8 7 -15 15 -15 8 0 15 7 15 15 0 8 -7 15 -15 15 -8 0
-15 -7 -15 -15z"/>
<path d="M919 233 c-51 -133 -49 -123 -28 -123 11 0 22 7 25 15 8 20 51 19 62
-1 5 -9 16 -14 24 -13 13 3 11 15 -11 74 -30 78 -54 94 -72 48z m41 -55 c0 -5
-6 -8 -14 -8 -9 0 -12 7 -9 21 4 16 8 17 14 7 5 -7 9 -16 9 -20z"/>
<path d="M1100 240 c0 -16 -7 -20 -30 -20 -43 0 -67 -38 -48 -77 12 -25 19
-28 66 -29 50 -2 53 0 48 20 -3 11 -6 45 -6 74 0 39 -4 52 -15 52 -8 0 -15 -9
-15 -20z m-2 -73 c4 -20 -25 -34 -40 -19 -15 15 -1 44 19 40 10 -2 19 -11 21
-21z"/>
<path d="M1507 233 c-2 -16 -2 -48 2 -73 5 -40 9 -45 34 -48 19 -2 27 1 27 12
0 9 -4 16 -10 16 -5 0 -10 11 -10 25 0 14 5 25 10 25 6 0 10 7 10 15 0 8 -4
15 -10 15 -5 0 -10 9 -10 20 0 32 -36 26 -43 -7z"/>
<path d="M240 165 c0 -48 2 -55 20 -55 18 0 20 7 20 55 0 48 -2 55 -20 55 -18
0 -20 -7 -20 -55z"/>
<path d="M373 194 c-15 -24 -15 -29 -2 -53 12 -21 22 -26 54 -26 33 0 40 4 48
28 15 46 -5 77 -48 77 -26 0 -39 -6 -52 -26z m62 -4 c3 -5 -3 -10 -15 -10 -12
0 -18 5 -15 10 3 6 10 10 15 10 5 0 12 -4 15 -10z m0 -50 c-3 -5 -12 -7 -20
-3 -21 7 -19 13 6 13 11 0 18 -4 14 -10z"/>
<path d="M620 165 c0 -42 3 -55 15 -55 12 0 15 13 15 55 0 42 -3 55 -15 55
-12 0 -15 -13 -15 -55z"/>
<path d="M660 210 c0 -5 11 -10 25 -10 14 0 25 -3 25 -6 0 -3 -11 -19 -25 -36
-14 -16 -25 -34 -25 -39 0 -5 23 -9 50 -9 38 0 50 4 50 15 0 9 -10 15 -26 15
l-25 0 25 33 c15 19 26 37 26 40 0 4 -22 7 -50 7 -27 0 -50 -4 -50 -10z"/>
<path d="M777 202 c-35 -38 -8 -92 45 -92 26 0 53 22 41 33 -3 4 -1 7 5 7 17
0 15 36 -4 54 -21 22 -67 20 -87 -2z m63 -18 c0 -2 -9 -4 -21 -4 -11 0 -18 4
-14 10 5 8 35 3 35 -6z m-7 -41 c-7 -2 -19 -2 -25 0 -7 3 -2 5 12 5 14 0 19
-2 13 -5z"/>
<path d="M1160 168 c11 -29 20 -54 20 -55 0 -2 9 -3 20 -3 11 0 20 2 20 5 0 2
9 27 20 55 19 49 19 50 1 50 -12 0 -23 -12 -31 -32 l-13 -33 -10 33 c-6 21
-16 32 -28 32 -18 0 -18 -2 1 -52z"/>
<path d="M1263 194 c-15 -24 -15 -29 -2 -53 12 -21 22 -26 54 -26 33 0 40 4
48 28 15 46 -5 77 -48 77 -26 0 -39 -6 -52 -26z m62 -4 c3 -5 -3 -10 -15 -10
-12 0 -18 5 -15 10 3 6 10 10 15 10 5 0 12 -4 15 -10z m0 -50 c-3 -5 -12 -7
-20 -3 -21 7 -19 13 6 13 11 0 18 -4 14 -10z"/>
<path d="M1380 165 c0 -48 2 -55 20 -55 17 0 20 7 20 40 0 29 4 40 15 40 11 0
15 -11 15 -40 0 -33 3 -40 20 -40 17 0 20 7 20 39 0 64 -6 71 -61 71 l-49 0 0
-55z"/>
<path d="M1580 176 c0 -54 12 -64 73 -64 45 0 48 1 43 21 -3 12 -6 37 -6 55 0
25 -4 32 -20 32 -17 0 -20 -7 -20 -40 0 -29 -4 -40 -15 -40 -11 0 -15 11 -15
40 0 33 -3 40 -20 40 -17 0 -20 -7 -20 -44z"/>
<path d="M1710 165 c0 -42 3 -55 15 -55 9 0 15 9 15 24 0 35 10 56 26 56 9 0
14 -11 14 -28 0 -15 5 -33 12 -40 16 -16 73 -15 85 1 14 19 16 67 3 83 -15 17
-71 19 -88 2 -9 -9 -12 -9 -12 0 0 7 -14 12 -35 12 l-35 0 0 -55z m135 25 c3
-5 -1 -10 -10 -10 -9 0 -13 5 -10 10 3 6 8 10 10 10 2 0 7 -4 10 -10z m8 -47
c-7 -2 -19 -2 -25 0 -7 3 -2 5 12 5 14 0 19 -2 13 -5z"/>
</g>
</svg>
