<?xml version="1.0" standalone="no"?>
<!DOCTYPE svg PUBLIC "-//W3C//DTD SVG 20010904//EN"
 "http://www.w3.org/TR/2001/REC-SVG-20010904/DTD/svg10.dtd">
<svg version="1.0" xmlns="http://www.w3.org/2000/svg"
 width="200.000000pt" height="138.000000pt" viewBox="0 0 200.000000 138.000000"
 preserveAspectRatio="xMidYMid meet">

<g transform="translate(0.000000,138.000000) scale(0.100000,-0.100000)"
fill="#000000" stroke="none">
<path d="M1022 1232 c-10 -10 -24 -44 -31 -75 l-12 -57 -95 0 -94 0 0 -385 0
-385 316 0 316 0 32 32 33 33 7 281 c4 155 4 298 1 318 -4 21 -20 50 -37 66
-26 26 -37 30 -88 30 l-58 0 -12 66 c-7 36 -19 72 -27 80 -11 10 -42 14 -124
14 -92 0 -112 -3 -127 -18z m319 -262 c36 -20 10 -78 -29 -66 -35 11 -30 66 6
75 2 1 12 -4 23 -9z m-118 -61 c91 -25 167 -136 167 -244 -1 -143 -104 -244
-251 -245 -111 0 -200 60 -235 159 -18 50 -17 144 2 189 47 115 188 177 317
141z"/>
<path d="M1062 855 c-18 -8 -31 -19 -28 -23 7 -12 -71 -92 -80 -83 -4 3 -4 1
0 -6 3 -6 2 -14 -3 -17 -13 -8 -6 -135 8 -149 10 -9 11 -8 6 8 -6 18 -5 18 5
2 6 -9 9 -21 5 -26 -3 -5 0 -13 6 -17 8 -5 9 -3 4 7 -4 8 2 4 14 -9 13 -12 27
-19 34 -15 7 4 6 -1 -2 -11 -8 -9 -10 -16 -5 -15 21 4 35 -2 29 -11 -4 -7 3
-7 19 0 19 7 26 6 26 -3 0 -8 17 -12 53 -11 73 2 79 3 72 15 -4 6 0 9 11 7 11
-2 18 2 17 9 -1 6 4 14 13 17 10 4 13 2 8 -6 -4 -7 -3 -8 4 -4 7 4 12 14 12
22 0 19 21 57 38 67 10 7 11 12 1 24 -10 12 -10 16 2 24 10 6 11 9 1 9 -7 0
-11 4 -8 8 2 4 -4 9 -15 9 -13 1 -19 -5 -19 -20 0 -21 -2 -20 -23 7 l-23 28
-17 -25 c-9 -15 -17 -33 -17 -40 0 -8 -9 -22 -20 -32 -11 -10 -19 -23 -17 -29
6 -15 -31 -66 -47 -66 -8 0 -19 7 -26 15 -7 8 -17 12 -23 8 -6 -4 -7 -1 -3 6
5 7 5 28 2 47 -5 26 -13 35 -34 40 -53 13 -55 44 -7 107 20 26 37 50 38 54 1
5 6 7 11 5 5 -2 13 3 17 10 4 7 20 13 35 13 27 2 70 45 45 45 -7 0 -9 5 -6 10
9 15 -75 11 -113 -5z m85 -7 c-9 -5 -23 -6 -30 -3 -6 4 -4 0 5 -7 15 -13 13
-14 -19 -15 -20 -1 -39 -6 -43 -13 -5 -8 -9 -5 -13 9 -6 23 26 38 82 39 28 0
31 -2 18 -10z m-177 -229 c0 -5 -4 -9 -10 -9 -5 0 -10 7 -10 16 0 8 5 12 10 9
6 -3 10 -10 10 -16z m222 -91 c-7 -7 -12 -8 -12 -2 0 14 12 26 19 19 2 -3 -1
-11 -7 -17z"/>
<path d="M999 813 c-13 -16 -12 -17 4 -4 9 7 17 15 17 17 0 8 -8 3 -21 -13z"/>
<path d="M1280 805 c13 -14 26 -25 28 -25 3 0 -5 11 -18 25 -13 14 -26 25 -28
25 -3 0 5 -11 18 -25z"/>
<path d="M1322 728 c1 -16 6 -28 10 -28 11 0 10 22 -2 40 -8 11 -9 9 -8 -12z"/>
<path d="M1065 729 c-4 -5 1 -9 9 -9 9 0 16 -4 16 -10 0 -5 15 -10 33 -9 30 1
30 1 7 8 -14 4 -24 12 -23 17 2 13 -35 15 -42 3z"/>
<path d="M1177 639 c7 -7 15 -10 18 -7 3 3 -2 9 -12 12 -14 6 -15 5 -6 -5z"/>
<path d="M571 1083 c-58 -29 -61 -48 -61 -373 0 -365 -2 -361 131 -375 l66 -7
6 84 c4 45 7 219 7 386 l0 302 -57 0 c-33 0 -72 -8 -92 -17z"/>
<path d="M140 234 l0 -65 48 3 47 3 -2 38 c-3 49 10 47 28 -5 10 -32 11 -42 1
-46 -14 -4 -16 -32 -3 -32 26 0 42 16 56 61 19 57 35 64 35 15 l0 -34 65 0
c36 0 67 4 71 9 4 6 11 6 19 -1 8 -6 31 -10 52 -8 33 3 38 6 41 31 3 24 -2 30
-27 40 -36 13 -42 30 -7 21 20 -5 45 10 34 21 -15 15 -57 14 -77 -3 -20 -15
-22 -22 -13 -39 6 -11 23 -24 38 -27 35 -9 23 -20 -13 -12 -16 4 -33 16 -38
28 -17 36 -39 44 -69 25 -14 -10 -26 -26 -26 -37 0 -11 -4 -20 -10 -20 -5 0
-10 9 -10 20 0 11 5 20 10 20 15 0 12 19 -4 36 -17 16 -36 19 -36 4 0 -5 -9
-10 -20 -10 -13 0 -25 -10 -31 -27 l-11 -28 -10 28 c-6 16 -17 27 -28 27 -10
0 -20 7 -24 15 -3 10 -19 15 -46 15 l-40 0 0 -66z m60 26 c0 -5 -7 -10 -15
-10 -8 0 -15 5 -15 10 0 6 7 10 15 10 8 0 15 -4 15 -10z m10 -50 c0 -5 -9 -10
-20 -10 -11 0 -20 5 -20 10 0 6 9 10 20 10 11 0 20 -4 20 -10z"/>
<path d="M610 235 l0 -65 60 0 c57 0 84 15 39 22 l-21 3 21 27 c32 41 27 51
-24 46 -38 -3 -45 0 -45 14 0 10 -7 18 -15 18 -12 0 -15 -14 -15 -65z m70 -3
c0 -5 -9 -17 -20 -27 -20 -18 -20 -17 -20 8 0 20 5 27 20 27 11 0 20 -4 20 -8z"/>
<path d="M900 288 c-1 -7 -17 -21 -37 -30 -32 -15 -38 -15 -59 -1 -22 14 -26
14 -49 -1 -27 -18 -33 -54 -13 -74 17 -17 65 -15 76 4 8 14 10 14 21 0 18 -22
126 -22 135 -1 7 19 35 20 42 2 3 -9 27 -14 74 -15 l69 -2 -6 35 c-7 45 3 45
21 0 19 -44 42 -45 60 -2 11 24 15 27 15 11 1 -11 6 -25 13 -32 18 -18 65 -15
77 6 10 16 10 16 11 0 0 -11 8 -18 20 -18 16 0 20 7 20 36 0 21 4 33 10 29 6
-3 10 -19 10 -36 0 -22 5 -29 20 -29 16 0 20 7 21 38 l2 37 6 -35 c5 -29 11
-36 35 -38 21 -3 26 0 21 10 -6 10 -5 11 6 1 7 -8 39 -13 76 -13 l63 0 0 29
c0 17 5 33 10 36 6 3 10 -4 10 -17 0 -13 5 -29 12 -36 15 -15 64 -16 73 -2 5
8 11 7 20 0 8 -6 26 -10 42 -8 37 4 44 40 11 56 -18 9 -19 11 -4 9 27 -3 32
20 6 28 -12 4 -30 0 -44 -8 -21 -14 -25 -14 -39 0 -13 14 -21 14 -41 5 -14 -6
-27 -8 -30 -4 -3 5 -17 8 -33 7 -25 0 -29 -4 -34 -40 l-6 -40 -2 43 c-1 30 -5
42 -16 42 -10 0 -15 -11 -15 -35 0 -24 -5 -35 -15 -35 -10 0 -15 11 -15 35 0
24 -5 35 -15 35 -10 0 -15 -11 -15 -35 0 -24 -5 -35 -15 -35 -8 0 -15 9 -15
20 0 11 5 20 10 20 15 0 12 19 -4 36 -20 20 -34 18 -41 -6 -4 -12 -11 -17 -18
-13 -7 4 -27 8 -45 9 -26 1 -36 -4 -42 -20 -5 -12 -9 -16 -9 -9 -1 7 -10 17
-22 23 -16 9 -26 8 -45 -5 -22 -14 -24 -14 -24 1 0 22 -23 12 -37 -16 l-12
-24 -10 27 c-6 15 -17 27 -26 27 -8 0 -15 7 -15 15 0 8 -7 15 -15 15 -8 0 -15
-6 -15 -13 0 -7 -14 -18 -30 -24 -17 -6 -34 -21 -38 -34 -10 -25 -14 -21 -32
34 -16 52 -37 45 -64 -23 l-21 -55 -3 58 c-2 42 -7 57 -17 57 -8 0 -15 -6 -15
-12z m0 -69 c0 -11 -28 -24 -36 -17 -2 3 -2 12 2 21 6 16 34 12 34 -4z m220 0
c0 -12 -29 -24 -37 -16 -3 4 -3 13 0 21 6 16 37 11 37 -5z m707 -25 c-6 -6
-47 9 -47 17 0 5 11 3 25 -3 14 -6 24 -13 22 -14z"/>
</g>
</svg>
